<svg xmlns="http://www.w3.org/2000/svg" height="512pt" version="1.1" viewBox="0 0 512.00031 512" width="512pt">
<g id="surface1">
<path d="M 499.0625 76.191406 L 349.972656 225.28125 L 286.378906 161.6875 L 435.464844 12.597656 C 451.964844 -4.199219 481.363281 -4.199219 498.160156 12.597656 C 517.359375 32.097656 515.5625 59.695312 499.0625 76.191406 Z M 499.0625 76.191406 " style=" stroke:none;fill-rule:nonzero;fill:rgb(100%,80.392157%,0%);fill-opacity:1;" />
<path d="M 499.0625 76.191406 L 349.972656 225.28125 L 317.875 193.1875 L 498.160156 12.597656 C 517.359375 32.097656 515.5625 59.695312 499.0625 76.191406 Z M 499.0625 76.191406 " style=" stroke:none;fill-rule:nonzero;fill:rgb(100%,63.921569%,0%);fill-opacity:1;" />
<path d="M 309.777344 347.972656 L 163.6875 201.882812 C 152.589844 191.085938 137.289062 186.585938 122.289062 189.582031 C 107.292969 192.882812 94.992188 203.382812 89.59375 218.082031 L 2.964844 450.628906 C -3.335938 467.429688 0.5625 485.726562 13.164062 498.328125 C 25.460938 510.625 43.761719 515.125 60.558594 508.828125 L 293.878906 422.066406 C 308.277344 416.667969 318.777344 404.371094 322.074219 389.371094 C 325.074219 374.371094 320.574219 359.070312 309.777344 347.972656 Z M 309.777344 347.972656 " style=" stroke:none;fill-rule:nonzero;fill:rgb(87.058824%,92.54902%,94.509804%);fill-opacity:1;" />
<path d="M 309.777344 347.972656 C 320.574219 359.070312 325.074219 374.371094 322.074219 389.371094 C 318.773438 404.367188 308.277344 416.667969 293.875 422.066406 L 60.558594 508.828125 C 43.761719 515.125 25.460938 510.625 13.160156 498.328125 L 236.582031 274.777344 Z M 309.777344 347.972656 " style=" stroke:none;fill-rule:nonzero;fill:rgb(77.647059%,88.627451%,90.588235%);fill-opacity:1;" />
<path d="M 328.976562 203.984375 L 194.285156 338.675781 C 188.285156 344.375 178.988281 344.375 172.988281 338.675781 L 172.988281 338.375 C 167.285156 332.375 167.285156 323.375 172.988281 317.375 L 307.675781 182.6875 C 313.375 176.988281 322.675781 176.988281 328.675781 182.386719 L 328.976562 182.6875 C 334.675781 188.683594 334.675781 198.285156 328.976562 203.984375 Z M 328.976562 203.984375 " style=" stroke:none;fill-rule:nonzero;fill:rgb(49.411765%,36.470588%,25.098039%);fill-opacity:1;" />
<path d="M 328.976562 203.984375 L 194.285156 338.675781 C 188.285156 344.375 178.988281 344.375 172.988281 338.675781 L 172.988281 338.375 L 328.675781 182.386719 L 328.976562 182.6875 C 334.675781 188.683594 334.675781 198.285156 328.976562 203.984375 Z M 328.976562 203.984375 " style=" stroke:none;fill-rule:nonzero;fill:rgb(40.784314%,30.196078%,20.392157%);fill-opacity:1;" />
<path d="M 371.273438 246.582031 C 365.273438 252.28125 355.972656 252.28125 349.972656 246.582031 L 307.375 203.984375 L 265.082031 161.6875 C 259.382812 155.6875 259.382812 146.390625 265.082031 140.390625 C 271.078125 134.691406 280.679688 134.691406 286.378906 140.390625 L 328.675781 182.683594 L 371.273438 225.28125 C 376.972656 230.980469 376.972656 240.582031 371.273438 246.582031 Z M 371.273438 246.582031 " style=" stroke:none;fill-rule:nonzero;fill:rgb(54.117647%,40%,27.058824%);fill-opacity:1;" />
<path d="M 371.273438 246.582031 C 365.273438 252.28125 355.972656 252.28125 349.972656 246.582031 L 307.375 203.984375 L 328.675781 182.683594 L 371.273438 225.28125 C 376.972656 230.980469 376.972656 240.582031 371.273438 246.582031 Z M 371.273438 246.582031 " style=" stroke:none;fill-rule:nonzero;fill:rgb(49.411765%,36.470588%,25.098039%);fill-opacity:1;" />
</g>
</svg>