<?xml version="1.0" encoding="UTF-8"?>
<svg width="1920px" height="1920px" viewBox="0 0 1920 1920" version="1.1" xmlns="http://www.w3.org/2000/svg" xmlns:xlink="http://www.w3.org/1999/xlink">
    <!-- Generator: Sketch 43.2 (39069) - http://www.bohemiancoding.com/sketch -->
    <title>collections</title>
    <desc>Created with Sketch.</desc>
    <defs></defs>
    <g id="Page-1" stroke="none" stroke-width="1" fill="none" fill-rule="evenodd">
        <g id="collections" fill-rule="nonzero" fill="#000" fill-opacity="0.7">
            <g transform="translate(96.000000, 123.000000)">
                <path d="M0,602.006263 C0,557.820024 35.8188211,522 80.0046013,522 L1647.9954,522 C1692.18072,522 1728,557.819955 1728,602.006263 L1728,1593.99374 C1728,1638.17998 1692.18118,1674 1647.9954,1674 L80.0046013,1674 C35.8192801,1674 0,1638.18005 0,1593.99374 L0,602.006263 Z M607.145417,1179.78296 L606.999987,957.425348 C606.978314,924.28827 580.097836,897.44293 546.960758,897.464602 C513.82368,897.486275 486.97834,924.366754 487.000013,957.503832 L487.184576,1239.69541 C487.206206,1272.76758 513.985447,1299.58602 547.05755,1299.65603 L1181.87299,1300.99987 C1215.05961,1301.07012 1242,1274.1867 1242,1241 L1242,956 C1242,922.862915 1215.13708,896 1182,896 C1148.86292,896 1122,922.862915 1122,956 L1122,1180.87285 L607.145417,1179.78296 Z" id="Combined-Shape"></path>
                <path d="M144,352.002899 C144,296.772823 188.774944,252 244.007829,252 L1483.99217,252 C1539.22497,252 1584,296.776608 1584,352.002899 L1584,442.006938 C1584,453.048801 1575.03859,462 1564.00414,462 L163.995865,462 C152.952454,462 144,453.043741 144,442.006938 L144,352.002899 Z" id="Rectangle-2"></path>
                <path d="M288,96 C288,42.980664 330.981463,0 383.99095,0 L1344.00905,0 C1397.02339,0 1440,42.9839434 1440,96 L1440,171.995987 C1440,183.043898 1431.04056,192 1420.00488,192 L307.995117,192 C296.952119,192 288,183.044889 288,171.995987 L288,96 Z" id="Rectangle-2-Copy"></path>
            </g>
        </g>
    </g>
</svg>