<svg version="1.1" width="512.000000" height="512.000000" viewBox="0.000000 0.000000 58.000000 58.000000" xmlns="http://www.w3.org/2000/svg" xmlns:xlink="http://www.w3.org/1999/xlink" id="Capa_1" overflow="hidden"><g><circle cx="29.000000" cy="29.000000" r="29.000000" fill="#2F6C67"/><g><path d=" M 44.000000 29.000000 L 22.000000 44.000000 L 22.000000 29.273001 L 22.000000 14.000000 Z" fill="#FFFFFF"/><path d=" M 22.000000 45.000000 C 21.840000 45.000000 21.679001 44.962002 21.533001 44.883999 C 21.205000 44.710999 21.000000 44.370998 21.000000 44.000000 L 21.000000 14.000000 C 21.000000 13.629000 21.205000 13.289000 21.533001 13.116000 C 21.861000 12.942000 22.257000 12.966000 22.563999 13.174000 L 44.563999 28.174000 C 44.835999 28.360001 45.000000 28.669001 45.000000 29.000000 C 45.000000 29.330999 44.835999 29.639999 44.563000 29.826000 L 22.563000 44.826000 C 22.393999 44.941002 22.197001 45.000000 22.000000 45.000000 Z M 23.000000 15.893000 L 23.000000 42.108002 L 42.224998 29.000000 L 23.000000 15.893000 Z" fill="#FFFFFF"/></g></g></svg>